<svg xmlns="http://www.w3.org/2000/svg" width="1440" height="900"><path d="M754,449L683,546L765,543Z" fill="#367878" stroke="#367878" stroke-width="1.51"/><path d="M754,449L638,441L683,546Z" fill="#3a7476" stroke="#3a7476" stroke-width="1.51"/><path d="M754,449L661,308L638,441Z" fill="#3f7074" stroke="#3f7074" stroke-width="1.51"/><path d="M910,432L794,356L754,449Z" fill="#3a7677" stroke="#3a7677" stroke-width="1.51"/><path d="M765,543L883,551L754,449Z" fill="#347c78" stroke="#347c78" stroke-width="1.51"/><path d="M877,668L883,551L765,543Z" fill="#2d847b" stroke="#2d847b" stroke-width="1.51"/><path d="M683,546L670,663L765,543Z" fill="#337e79" stroke="#337e79" stroke-width="1.51"/><path d="M530,581L670,663L683,546Z" fill="#377d79" stroke="#377d79" stroke-width="1.51"/><path d="M883,551L910,432L754,449Z" fill="#347b79" stroke="#347b79" stroke-width="1.51"/><path d="M670,663L755,698L765,543Z" fill="#2e837b" stroke="#2e837b" stroke-width="1.51"/><path d="M638,441L530,581L683,546Z" fill="#3b7777" stroke="#3b7777" stroke-width="1.51"/><path d="M561,317L530,441L638,441Z" fill="#436e73" stroke="#436e73" stroke-width="1.51"/><path d="M794,356L661,308L754,449Z" fill="#3f7175" stroke="#3f7175" stroke-width="1.51"/><path d="M530,441L530,581L638,441Z" fill="#3f7375" stroke="#3f7375" stroke-width="1.51"/><path d="M910,432L894,353L794,356Z" fill="#3b7877" stroke="#3b7877" stroke-width="1.51"/><path d="M749,207L674,223L661,308Z" fill="#486c73" stroke="#486c73" stroke-width="1.51"/><path d="M755,698L877,668L765,543Z" fill="#2b877c" stroke="#2b877c" stroke-width="1.51"/><path d="M883,551L994,467L910,432Z" fill="#31807a" stroke="#31807a" stroke-width="1.51"/><path d="M661,308L561,317L638,441Z" fill="#446e73" stroke="#446e73" stroke-width="1.51"/><path d="M910,432L983,325L894,353Z" fill="#397b79" stroke="#397b79" stroke-width="1.51"/><path d="M1000,582L994,467L883,551Z" fill="#2b867c" stroke="#2b867c" stroke-width="1.51"/><path d="M661,308L562,234L561,317Z" fill="#496c73" stroke="#496c73" stroke-width="1.51"/><path d="M749,207L661,308L794,356Z" fill="#446f74" stroke="#446f74" stroke-width="1.51"/><path d="M530,581L522,699L670,663Z" fill="#37817a" stroke="#37817a" stroke-width="1.51"/><path d="M683,816L768,809L755,698Z" fill="#309387" stroke="#309387" stroke-width="1.51"/><path d="M455,702L522,699L530,581Z" fill="#39817a" stroke="#39817a" stroke-width="1.51"/><path d="M877,668L1000,582L883,551Z" fill="#278a7d" stroke="#278a7d" stroke-width="1.51"/><path d="M896,247L749,207L794,356Z" fill="#447275" stroke="#447275" stroke-width="1.51"/><path d="M530,441L427,542L530,581Z" fill="#417576" stroke="#417576" stroke-width="1.51"/><path d="M419,477L427,542L530,441Z" fill="#437175" stroke="#437175" stroke-width="1.51"/><path d="M430,351L419,477L530,441Z" fill="#466d73" stroke="#466d73" stroke-width="1.51"/><path d="M894,353L896,247L794,356Z" fill="#407777" stroke="#407777" stroke-width="1.51"/><path d="M983,325L896,247L894,353Z" fill="#3e7a77" stroke="#3e7a77" stroke-width="1.51"/><path d="M674,223L562,234L661,308Z" fill="#496c73" stroke="#496c73" stroke-width="1.51"/><path d="M561,317L430,351L530,441Z" fill="#476d73" stroke="#476d73" stroke-width="1.51"/><path d="M566,99L562,234L674,223Z" fill="#4c6771" stroke="#4c6771" stroke-width="1.51"/><path d="M755,698L768,809L877,668Z" fill="#2a9182" stroke="#2a9182" stroke-width="1.51"/><path d="M877,668L1015,655L1000,582Z" fill="#1f907f" stroke="#1f907f" stroke-width="1.51"/><path d="M683,816L755,698L670,663Z" fill="#308c81" stroke="#308c81" stroke-width="1.51"/><path d="M994,467L983,325L910,432Z" fill="#357e79" stroke="#357e79" stroke-width="1.51"/><path d="M536,786L683,816L670,663Z" fill="#368e83" stroke="#368e83" stroke-width="1.51"/><path d="M562,234L430,351L561,317Z" fill="#4b6b72" stroke="#4b6b72" stroke-width="1.51"/><path d="M990,782L1015,655L877,668Z" fill="#1a9783" stroke="#1a9783" stroke-width="1.51"/><path d="M1000,582L1138,549L994,467Z" fill="#268b7e" stroke="#268b7e" stroke-width="1.51"/><path d="M1144,326L989,229L983,325Z" fill="#3c807a" stroke="#3c807a" stroke-width="1.51"/><path d="M522,699L536,786L670,663Z" fill="#37887f" stroke="#37887f" stroke-width="1.51"/><path d="M427,542L455,702L530,581Z" fill="#3e7c78" stroke="#3e7c78" stroke-width="1.51"/><path d="M455,702L536,786L522,699Z" fill="#3c8980" stroke="#3c8980" stroke-width="1.51"/><path d="M768,809L904,818L877,668Z" fill="#299888" stroke="#299888" stroke-width="1.51"/><path d="M772,887L904,818L768,809Z" fill="#309f8f" stroke="#309f8f" stroke-width="1.51"/><path d="M983,325L989,229L896,247Z" fill="#407a78" stroke="#407a78" stroke-width="1.51"/><path d="M917,106L749,104L749,207Z" fill="#466a72" stroke="#466a72" stroke-width="1.51"/><path d="M1144,443L983,325L994,467Z" fill="#32837b" stroke="#32837b" stroke-width="1.51"/><path d="M904,818L990,782L877,668Z" fill="#229b88" stroke="#229b88" stroke-width="1.51"/><path d="M683,816L772,887L768,809Z" fill="#349b8e" stroke="#349b8e" stroke-width="1.51"/><path d="M904,818L989,908L990,782Z" fill="#23a891" stroke="#23a891" stroke-width="1.51"/><path d="M675,934L772,887L683,816Z" fill="#389f92" stroke="#389f92" stroke-width="1.51"/><path d="M427,542L306,663L455,702Z" fill="#407d79" stroke="#407d79" stroke-width="1.51"/><path d="M419,477L328,538L427,542Z" fill="#457375" stroke="#457375" stroke-width="1.51"/><path d="M297,454L328,538L419,477Z" fill="#476f74" stroke="#476f74" stroke-width="1.51"/><path d="M749,207L749,104L674,223Z" fill="#486971" stroke="#486971" stroke-width="1.51"/><path d="M917,106L749,207L896,247Z" fill="#457175" stroke="#457175" stroke-width="1.51"/><path d="M536,786L574,888L683,816Z" fill="#3d978c" stroke="#3d978c" stroke-width="1.51"/><path d="M422,809L574,888L536,786Z" fill="#42958b" stroke="#42958b" stroke-width="1.51"/><path d="M422,809L536,786L455,702Z" fill="#408d84" stroke="#408d84" stroke-width="1.51"/><path d="M1114,673L1000,582L1015,655Z" fill="#159481" stroke="#159481" stroke-width="1.51"/><path d="M1114,673L1138,549L1000,582Z" fill="#189481" stroke="#189481" stroke-width="1.51"/><path d="M749,104L680,80L674,223Z" fill="#486571" stroke="#486571" stroke-width="1.51"/><path d="M562,234L409,212L430,351Z" fill="#4e6972" stroke="#4e6972" stroke-width="1.51"/><path d="M1138,549L1144,443L994,467Z" fill="#288a7e" stroke="#288a7e" stroke-width="1.51"/><path d="M430,351L297,454L419,477Z" fill="#496c73" stroke="#496c73" stroke-width="1.51"/><path d="M566,99L409,212L562,234Z" fill="#4e6571" stroke="#4e6571" stroke-width="1.51"/><path d="M295,315L297,454L430,351Z" fill="#4c6972" stroke="#4c6972" stroke-width="1.51"/><path d="M1104,770L1114,673L1015,655Z" fill="#039d84" stroke="#039d84" stroke-width="1.51"/><path d="M306,663L422,809L455,702Z" fill="#41877f" stroke="#41877f" stroke-width="1.51"/><path d="M306,663L427,542L328,538Z" fill="#447777" stroke="#447777" stroke-width="1.51"/><path d="M680,80L566,99L674,223Z" fill="#4a6470" stroke="#4a6470" stroke-width="1.51"/><path d="M772,887L889,904L904,818Z" fill="#2ea693" stroke="#2ea693" stroke-width="1.51"/><path d="M574,888L675,934L683,816Z" fill="#3c9e91" stroke="#3c9e91" stroke-width="1.51"/><path d="M764,1048L889,904L772,887Z" fill="#33a795" stroke="#33a795" stroke-width="1.51"/><path d="M990,782L1104,770L1015,655Z" fill="#129f87" stroke="#129f87" stroke-width="1.51"/><path d="M989,229L917,106L896,247Z" fill="#447676" stroke="#447676" stroke-width="1.51"/><path d="M756,-22L642,-15L680,80Z" fill="#475b6d" stroke="#475b6d" stroke-width="1.51"/><path d="M1008,93L917,106L989,229Z" fill="#437475" stroke="#437475" stroke-width="1.51"/><path d="M217,587L306,663L328,538Z" fill="#447676" stroke="#447676" stroke-width="1.51"/><path d="M1144,443L1144,326L983,325Z" fill="#35857b" stroke="#35857b" stroke-width="1.51"/><path d="M330,243L295,315L430,351Z" fill="#506872" stroke="#506872" stroke-width="1.51"/><path d="M989,908L1104,770L990,782Z" fill="#1aa991" stroke="#1aa991" stroke-width="1.51"/><path d="M1237,559L1214,450L1138,549Z" fill="#289585" stroke="#289585" stroke-width="1.51"/><path d="M409,212L330,243L430,351Z" fill="#506871" stroke="#506871" stroke-width="1.51"/><path d="M313,91L330,243L409,212Z" fill="#536270" stroke="#536270" stroke-width="1.51"/><path d="M889,904L989,908L904,818Z" fill="#29ab96" stroke="#29ab96" stroke-width="1.51"/><path d="M885,1049L989,908L889,904Z" fill="#2bad98" stroke="#2bad98" stroke-width="1.51"/><path d="M1144,443L1231,359L1144,326Z" fill="#378b81" stroke="#378b81" stroke-width="1.51"/><path d="M1138,549L1214,450L1144,443Z" fill="#2c8f82" stroke="#2c8f82" stroke-width="1.51"/><path d="M1237,559L1138,549L1228,668Z" fill="#1f9c87" stroke="#1f9c87" stroke-width="1.51"/><path d="M1144,326L1129,214L989,229Z" fill="#3e827b" stroke="#3e827b" stroke-width="1.51"/><path d="M1248,241L1129,214L1144,326Z" fill="#418880" stroke="#418880" stroke-width="1.51"/><path d="M756,-22L680,80L749,104Z" fill="#475f6e" stroke="#475f6e" stroke-width="1.51"/><path d="M1129,214L1008,93L989,229Z" fill="#417b78" stroke="#417b78" stroke-width="1.51"/><path d="M422,809L418,918L574,888Z" fill="#469a90" stroke="#469a90" stroke-width="1.51"/><path d="M561,1040L659,1051L675,934Z" fill="#3fa093" stroke="#3fa093" stroke-width="1.51"/><path d="M306,663L329,822L422,809Z" fill="#468b83" stroke="#468b83" stroke-width="1.51"/><path d="M566,99L425,83L409,212Z" fill="#4f616f" stroke="#4f616f" stroke-width="1.51"/><path d="M441,-13L425,83L566,99Z" fill="#4e5b6d" stroke="#4e5b6d" stroke-width="1.51"/><path d="M306,663L209,778L329,822Z" fill="#458680" stroke="#458680" stroke-width="1.51"/><path d="M297,454L217,587L328,538Z" fill="#466f74" stroke="#466f74" stroke-width="1.51"/><path d="M200,421L217,587L297,454Z" fill="#476a72" stroke="#476a72" stroke-width="1.51"/><path d="M322,889L418,918L422,809Z" fill="#4a998f" stroke="#4a998f" stroke-width="1.51"/><path d="M1228,668L1138,549L1114,673Z" fill="#159c86" stroke="#159c86" stroke-width="1.51"/><path d="M680,80L642,-15L566,99Z" fill="#4a5d6e" stroke="#4a5d6e" stroke-width="1.51"/><path d="M756,-22L749,104L888,-31Z" fill="#46616f" stroke="#46616f" stroke-width="1.51"/><path d="M888,-31L749,104L917,106Z" fill="#456671" stroke="#456671" stroke-width="1.51"/><path d="M1214,450L1231,359L1144,443Z" fill="#338e83" stroke="#338e83" stroke-width="1.51"/><path d="M1327,343L1231,359L1359,457Z" fill="#3a968a" stroke="#3a968a" stroke-width="1.51"/><path d="M295,315L200,421L297,454Z" fill="#4b6671" stroke="#4b6671" stroke-width="1.51"/><path d="M185,313L200,421L295,315Z" fill="#4d6370" stroke="#4d6370" stroke-width="1.51"/><path d="M185,313L295,315L208,237Z" fill="#4f616f" stroke="#4f616f" stroke-width="1.51"/><path d="M1242,778L1228,668L1104,770Z" fill="#0fab90" stroke="#0fab90" stroke-width="1.51"/><path d="M1104,770L1228,668L1114,673Z" fill="#07a389" stroke="#07a389" stroke-width="1.51"/><path d="M675,934L764,1048L772,887Z" fill="#38a394" stroke="#38a394" stroke-width="1.51"/><path d="M659,1051L764,1048L675,934Z" fill="#3aa194" stroke="#3aa194" stroke-width="1.51"/><path d="M561,1040L675,934L574,888Z" fill="#40a093" stroke="#40a093" stroke-width="1.51"/><path d="M530,-99L554,-28L642,-135Z" fill="#4a586c" stroke="#4a586c" stroke-width="1.51"/><path d="M642,-15L554,-28L566,99Z" fill="#4b5a6d" stroke="#4b5a6d" stroke-width="1.51"/><path d="M1029,1L888,-31L917,106Z" fill="#446971" stroke="#446971" stroke-width="1.51"/><path d="M642,-135L554,-28L642,-15Z" fill="#4a596c" stroke="#4a596c" stroke-width="1.51"/><path d="M1029,1L917,106L1008,93Z" fill="#436e74" stroke="#436e74" stroke-width="1.51"/><path d="M1129,214L1126,116L1008,93Z" fill="#417a78" stroke="#417a78" stroke-width="1.51"/><path d="M1225,109L1126,116L1129,214Z" fill="#44807c" stroke="#44807c" stroke-width="1.51"/><path d="M329,822L322,889L422,809Z" fill="#4a948b" stroke="#4a948b" stroke-width="1.51"/><path d="M418,918L561,1040L574,888Z" fill="#459e93" stroke="#459e93" stroke-width="1.51"/><path d="M209,778L322,889L329,822Z" fill="#4a9089" stroke="#4a9089" stroke-width="1.51"/><path d="M414,1034L561,1040L418,918Z" fill="#489e92" stroke="#489e92" stroke-width="1.51"/><path d="M217,587L183,680L306,663Z" fill="#427777" stroke="#427777" stroke-width="1.51"/><path d="M112,561L183,680L217,587Z" fill="#437174" stroke="#437174" stroke-width="1.51"/><path d="M200,421L112,561L217,587Z" fill="#466a72" stroke="#466a72" stroke-width="1.51"/><path d="M208,237L295,315L330,243Z" fill="#516370" stroke="#516370" stroke-width="1.51"/><path d="M989,908L1120,922L1104,770Z" fill="#16b297" stroke="#16b297" stroke-width="1.51"/><path d="M764,1048L885,1049L889,904Z" fill="#31a997" stroke="#31a997" stroke-width="1.51"/><path d="M659,1051L885,1049L764,1048Z" fill="#36a495" stroke="#36a495" stroke-width="1.51"/><path d="M313,91L208,237L330,243Z" fill="#52606e" stroke="#52606e" stroke-width="1.51"/><path d="M313,91L409,212L425,83Z" fill="#525f6e" stroke="#525f6e" stroke-width="1.51"/><path d="M344,11L313,91L425,83Z" fill="#51596d" stroke="#51596d" stroke-width="1.51"/><path d="M1029,1012L1120,922L989,908Z" fill="#1db59a" stroke="#1db59a" stroke-width="1.51"/><path d="M183,680L209,778L306,663Z" fill="#427e7b" stroke="#427e7b" stroke-width="1.51"/><path d="M554,-28L441,-13L566,99Z" fill="#4c596c" stroke="#4c596c" stroke-width="1.51"/><path d="M1126,116L1029,1L1008,93Z" fill="#427375" stroke="#427375" stroke-width="1.51"/><path d="M1126,116L1136,-27L1029,1Z" fill="#427275" stroke="#427275" stroke-width="1.51"/><path d="M1231,359L1248,241L1144,326Z" fill="#3e8c82" stroke="#3e8c82" stroke-width="1.51"/><path d="M1327,343L1248,241L1231,359Z" fill="#3f9187" stroke="#3f9187" stroke-width="1.51"/><path d="M1120,922L1242,778L1104,770Z" fill="#15b397" stroke="#15b397" stroke-width="1.51"/><path d="M1372,547L1359,457L1237,559Z" fill="#2d9f8e" stroke="#2d9f8e" stroke-width="1.51"/><path d="M1359,457L1231,359L1214,450Z" fill="#369488" stroke="#369488" stroke-width="1.51"/><path d="M885,1049L1029,1012L989,908Z" fill="#27b099" stroke="#27b099" stroke-width="1.51"/><path d="M183,680L68,796L209,778Z" fill="#467f7e" stroke="#467f7e" stroke-width="1.51"/><path d="M100,438L112,561L200,421Z" fill="#476370" stroke="#476370" stroke-width="1.51"/><path d="M561,1040L414,1034L659,1051Z" fill="#449f93" stroke="#449f93" stroke-width="1.51"/><path d="M297,1007L414,1034L418,918Z" fill="#4d9c92" stroke="#4d9c92" stroke-width="1.51"/><path d="M297,1007L418,918L322,889Z" fill="#4e9b91" stroke="#4e9b91" stroke-width="1.51"/><path d="M313,91L184,110L208,237Z" fill="#515a6c" stroke="#515a6c" stroke-width="1.51"/><path d="M441,-13L344,11L425,83Z" fill="#50576c" stroke="#50576c" stroke-width="1.51"/><path d="M1359,457L1214,450L1237,559Z" fill="#2f9889" stroke="#2f9889" stroke-width="1.51"/><path d="M80,357L100,438L200,421Z" fill="#49606f" stroke="#49606f" stroke-width="1.51"/><path d="M80,357L200,421L185,313Z" fill="#4c606f" stroke="#4c606f" stroke-width="1.51"/><path d="M441,-13L310,-106L344,11Z" fill="#50546b" stroke="#50546b" stroke-width="1.51"/><path d="M554,-28L530,-99L441,-13Z" fill="#4c576c" stroke="#4c576c" stroke-width="1.51"/><path d="M642,-135L642,-15L756,-22Z" fill="#475a6d" stroke="#475a6d" stroke-width="1.51"/><path d="M1248,241L1225,109L1129,214Z" fill="#458680" stroke="#458680" stroke-width="1.51"/><path d="M1369,205L1225,109L1248,241Z" fill="#488c86" stroke="#488c86" stroke-width="1.51"/><path d="M1372,547L1237,559L1354,666Z" fill="#24a590" stroke="#24a590" stroke-width="1.51"/><path d="M800,-148L642,-135L756,-22Z" fill="#465b6d" stroke="#465b6d" stroke-width="1.51"/><path d="M800,-148L756,-22L888,-31Z" fill="#45606e" stroke="#45606e" stroke-width="1.51"/><path d="M1354,666L1237,559L1228,668Z" fill="#1ba58d" stroke="#1ba58d" stroke-width="1.51"/><path d="M888,-153L888,-31L985,-152Z" fill="#446670" stroke="#446670" stroke-width="1.51"/><path d="M888,-153L800,-148L888,-31Z" fill="#45626f" stroke="#45626f" stroke-width="1.51"/><path d="M1360,780L1354,666L1242,778Z" fill="#17b599" stroke="#17b599" stroke-width="1.51"/><path d="M1242,778L1354,666L1228,668Z" fill="#11ad92" stroke="#11ad92" stroke-width="1.51"/><path d="M-42,569L61,659L112,561Z" fill="#446a72" stroke="#446a72" stroke-width="1.51"/><path d="M82,244L80,357L185,313Z" fill="#4e5c6d" stroke="#4e5c6d" stroke-width="1.51"/><path d="M82,244L185,313L208,237Z" fill="#505d6e" stroke="#505d6e" stroke-width="1.51"/><path d="M175,930L297,1007L322,889Z" fill="#4e9790" stroke="#4e9790" stroke-width="1.51"/><path d="M175,930L322,889L209,778Z" fill="#4c918c" stroke="#4c918c" stroke-width="1.51"/><path d="M1120,922L1256,932L1242,778Z" fill="#1cbea1" stroke="#1cbea1" stroke-width="1.51"/><path d="M1029,1012L1134,1020L1120,922Z" fill="#18b89c" stroke="#18b89c" stroke-width="1.51"/><path d="M885,1049L1134,1020L1029,1012Z" fill="#21b39a" stroke="#21b39a" stroke-width="1.51"/><path d="M189,-17L184,110L313,91Z" fill="#50536a" stroke="#50536a" stroke-width="1.51"/><path d="M1222,6L1136,-27L1126,116Z" fill="#44777a" stroke="#44777a" stroke-width="1.51"/><path d="M985,-152L888,-31L1029,1Z" fill="#436871" stroke="#436871" stroke-width="1.51"/><path d="M112,561L61,659L183,680Z" fill="#437174" stroke="#437174" stroke-width="1.51"/><path d="M-42,569L112,561L100,438Z" fill="#456470" stroke="#456470" stroke-width="1.51"/><path d="M1134,1020L1256,932L1120,922Z" fill="#1cbea1" stroke="#1cbea1" stroke-width="1.51"/><path d="M184,110L82,244L208,237Z" fill="#515a6d" stroke="#515a6d" stroke-width="1.51"/><path d="M80,357L-36,430L100,438Z" fill="#495c6d" stroke="#495c6d" stroke-width="1.51"/><path d="M109,904L175,930L209,778Z" fill="#4d8e8b" stroke="#4d8e8b" stroke-width="1.51"/><path d="M1326,884L1360,780L1242,778Z" fill="#1dbea1" stroke="#1dbea1" stroke-width="1.51"/><path d="M1476,542L1453,470L1372,547Z" fill="#31a896" stroke="#31a896" stroke-width="1.51"/><path d="M1096,-154L985,-152L1029,1Z" fill="#426c72" stroke="#426c72" stroke-width="1.51"/><path d="M1225,109L1222,6L1126,116Z" fill="#457d7c" stroke="#457d7c" stroke-width="1.51"/><path d="M1362,90L1222,6L1225,109Z" fill="#488282" stroke="#488282" stroke-width="1.51"/><path d="M1096,-154L1029,1L1136,-27Z" fill="#416f74" stroke="#416f74" stroke-width="1.51"/><path d="M530,-99L414,-139L441,-13Z" fill="#4d566b" stroke="#4d566b" stroke-width="1.51"/><path d="M344,11L189,-17L313,91Z" fill="#50526a" stroke="#50526a" stroke-width="1.51"/><path d="M642,-135L414,-139L530,-99Z" fill="#4c586c" stroke="#4c586c" stroke-width="1.51"/><path d="M800,-148L414,-139L642,-135Z" fill="#49596c" stroke="#49596c" stroke-width="1.51"/><path d="M888,-153L414,-139L800,-148Z" fill="#475a6d" stroke="#475a6d" stroke-width="1.51"/><path d="M1443,359L1327,343L1359,457Z" fill="#3d9b8f" stroke="#3d9b8f" stroke-width="1.51"/><path d="M1444,244L1369,205L1327,343Z" fill="#48988e" stroke="#48988e" stroke-width="1.51"/><path d="M1327,343L1369,205L1248,241Z" fill="#46938a" stroke="#46938a" stroke-width="1.51"/><path d="M1256,932L1326,884L1242,778Z" fill="#1fc2a4" stroke="#1fc2a4" stroke-width="1.51"/><path d="M1375,1027L1326,884L1256,932Z" fill="#24caab" stroke="#24caab" stroke-width="1.51"/><path d="M61,659L68,796L183,680Z" fill="#437879" stroke="#437879" stroke-width="1.51"/><path d="M79,1012L198,998L175,930Z" fill="#4e918e" stroke="#4e918e" stroke-width="1.51"/><path d="M175,930L198,998L297,1007Z" fill="#4e958f" stroke="#4e958f" stroke-width="1.51"/><path d="M297,1007L79,1012L414,1034Z" fill="#4e9790" stroke="#4e9790" stroke-width="1.51"/><path d="M1372,547L1453,470L1359,457Z" fill="#33a292" stroke="#33a292" stroke-width="1.51"/><path d="M1440,676L1372,547L1354,666Z" fill="#20af96" stroke="#20af96" stroke-width="1.51"/><path d="M414,-139L310,-106L441,-13Z" fill="#4f556b" stroke="#4f556b" stroke-width="1.51"/><path d="M184,110L60,98L82,244Z" fill="#50546b" stroke="#50546b" stroke-width="1.51"/><path d="M68,796L109,904L209,778Z" fill="#4a8786" stroke="#4a8786" stroke-width="1.51"/><path d="M1453,470L1443,359L1359,457Z" fill="#3a9f93" stroke="#3a9f93" stroke-width="1.51"/><path d="M1360,780L1440,676L1354,666Z" fill="#17b69a" stroke="#17b69a" stroke-width="1.51"/><path d="M1445,812L1440,676L1360,780Z" fill="#1dbfa2" stroke="#1dbfa2" stroke-width="1.51"/><path d="M310,-106L189,-17L344,11Z" fill="#4f5069" stroke="#4f5069" stroke-width="1.51"/><path d="M1326,884L1445,812L1360,780Z" fill="#21c5a7" stroke="#21c5a7" stroke-width="1.51"/><path d="M1134,1020L1259,1018L1256,932Z" fill="#1fc2a4" stroke="#1fc2a4" stroke-width="1.51"/><path d="M1375,1027L1259,1018L1134,1020Z" fill="#20c5a7" stroke="#20c5a7" stroke-width="1.51"/><path d="M1260,-111L1096,-154L1136,-27Z" fill="#447579" stroke="#447579" stroke-width="1.51"/><path d="M985,-152L1096,-154L888,-153Z" fill="#436a72" stroke="#436a72" stroke-width="1.51"/><path d="M1440,676L1476,542L1372,547Z" fill="#29ad97" stroke="#29ad97" stroke-width="1.51"/><path d="M1453,470L1592,423L1443,359Z" fill="#3ca193" stroke="#3ca193" stroke-width="1.51"/><path d="M1222,6L1260,-111L1136,-27Z" fill="#46787b" stroke="#46787b" stroke-width="1.51"/><path d="M1369,205L1362,90L1225,109Z" fill="#4a8b87" stroke="#4a8b87" stroke-width="1.51"/><path d="M1490,114L1362,90L1369,205Z" fill="#4d928d" stroke="#4d928d" stroke-width="1.51"/><path d="M-25,312L80,357L82,244Z" fill="#4d596c" stroke="#4d596c" stroke-width="1.51"/><path d="M-25,312L-36,430L80,357Z" fill="#4a596c" stroke="#4a596c" stroke-width="1.51"/><path d="M61,659L-40,688L68,796Z" fill="#447578" stroke="#447578" stroke-width="1.51"/><path d="M1443,359L1444,244L1327,343Z" fill="#459b91" stroke="#459b91" stroke-width="1.51"/><path d="M1490,114L1444,244L1598,195Z" fill="#4e9991" stroke="#4e9991" stroke-width="1.51"/><path d="M-36,430L-42,569L100,438Z" fill="#465e6e" stroke="#465e6e" stroke-width="1.51"/><path d="M68,796L-54,915L109,904Z" fill="#4d8889" stroke="#4d8889" stroke-width="1.51"/><path d="M-37,194L-25,312L82,244Z" fill="#4f556b" stroke="#4f556b" stroke-width="1.51"/><path d="M66,0L60,98L184,110Z" fill="#4f4d68" stroke="#4f4d68" stroke-width="1.51"/><path d="M-42,569L-40,688L61,659Z" fill="#426b72" stroke="#426b72" stroke-width="1.51"/><path d="M1447,905L1445,812L1326,884Z" fill="#25ccad" stroke="#25ccad" stroke-width="1.51"/><path d="M1580,700L1584,542L1476,542Z" fill="#28af98" stroke="#28af98" stroke-width="1.51"/><path d="M1362,90L1357,5L1222,6Z" fill="#4a8284" stroke="#4a8284" stroke-width="1.51"/><path d="M1446,-25L1357,5L1362,90Z" fill="#4d8788" stroke="#4d8788" stroke-width="1.51"/><path d="M189,-17L66,0L184,110Z" fill="#4e4d68" stroke="#4e4d68" stroke-width="1.51"/><path d="M310,-106L189,-107L189,-17Z" fill="#4f4e68" stroke="#4f4e68" stroke-width="1.51"/><path d="M414,-139L189,-107L310,-106Z" fill="#4f526a" stroke="#4f526a" stroke-width="1.51"/><path d="M-40,688L-32,799L68,796Z" fill="#46797c" stroke="#46797c" stroke-width="1.51"/><path d="M109,904L79,1012L175,930Z" fill="#4f908d" stroke="#4f908d" stroke-width="1.51"/><path d="M1357,5L1260,-111L1222,6Z" fill="#497d80" stroke="#497d80" stroke-width="1.51"/><path d="M-20,126L82,244L60,98Z" fill="#4f5169" stroke="#4f5169" stroke-width="1.51"/><path d="M-20,126L-37,194L82,244Z" fill="#4f526a" stroke="#4f526a" stroke-width="1.51"/><path d="M-161,310L-171,431L-36,430Z" fill="#49596c" stroke="#49596c" stroke-width="1.51"/><path d="M-169,576L-130,684L-42,569Z" fill="#436971" stroke="#436971" stroke-width="1.51"/><path d="M-54,915L79,1012L109,904Z" fill="#4f8c8c" stroke="#4f8c8c" stroke-width="1.51"/><path d="M198,998L79,1012L297,1007Z" fill="#4e938f" stroke="#4e938f" stroke-width="1.51"/><path d="M414,1034L-146,1038L659,1051Z" fill="#4e9991" stroke="#4e9991" stroke-width="1.51"/><path d="M100,-108L66,0L189,-17Z" fill="#4e4966" stroke="#4e4966" stroke-width="1.51"/><path d="M1375,1027L1447,905L1326,884Z" fill="#27cfb0" stroke="#27cfb0" stroke-width="1.51"/><path d="M1580,700L1476,542L1440,676Z" fill="#20b39a" stroke="#20b39a" stroke-width="1.51"/><path d="M-2,-33L-20,126L60,98Z" fill="#4d4966" stroke="#4d4966" stroke-width="1.51"/><path d="M1259,1018L1375,1027L1256,932Z" fill="#22c8aa" stroke="#22c8aa" stroke-width="1.51"/><path d="M885,1049L1375,1027L1134,1020Z" fill="#1abb9e" stroke="#1abb9e" stroke-width="1.51"/><path d="M1357,5L1360,-150L1260,-111Z" fill="#4b8184" stroke="#4b8184" stroke-width="1.51"/><path d="M1444,244L1490,114L1369,205Z" fill="#4e9890" stroke="#4e9890" stroke-width="1.51"/><path d="M1608,313L1444,244L1443,359Z" fill="#479e92" stroke="#479e92" stroke-width="1.51"/><path d="M1476,542L1584,542L1453,470Z" fill="#32a896" stroke="#32a896" stroke-width="1.51"/><path d="M1580,700L1440,676L1445,812Z" fill="#1cbea1" stroke="#1cbea1" stroke-width="1.51"/><path d="M66,0L-2,-33L60,98Z" fill="#4d4765" stroke="#4d4765" stroke-width="1.51"/><path d="M189,-107L100,-108L189,-17Z" fill="#4e4a67" stroke="#4e4a67" stroke-width="1.51"/><path d="M414,-139L100,-108L189,-107Z" fill="#4f4e68" stroke="#4f4e68" stroke-width="1.51"/><path d="M-32,799L-54,915L68,796Z" fill="#4b8285" stroke="#4b8285" stroke-width="1.51"/><path d="M-40,688L-130,684L-32,799Z" fill="#447479" stroke="#447479" stroke-width="1.51"/><path d="M-42,569L-130,684L-40,688Z" fill="#426c72" stroke="#426c72" stroke-width="1.51"/><path d="M-169,576L-42,569L-171,431Z" fill="#45616f" stroke="#45616f" stroke-width="1.51"/><path d="M1584,542L1592,423L1453,470Z" fill="#36a495" stroke="#36a495" stroke-width="1.51"/><path d="M-169,770L-54,915L-32,799Z" fill="#4b8184" stroke="#4b8184" stroke-width="1.51"/><path d="M1603,803L1608,313L1592,423Z" fill="#32a896" stroke="#32a896" stroke-width="1.51"/><path d="M1603,803L1580,700L1445,812Z" fill="#1fc3a5" stroke="#1fc3a5" stroke-width="1.51"/><path d="M1603,803L1445,812L1598,895Z" fill="#24cbad" stroke="#24cbad" stroke-width="1.51"/><path d="M-37,194L-117,208L-25,312Z" fill="#50556b" stroke="#50556b" stroke-width="1.51"/><path d="M-20,126L-117,208L-37,194Z" fill="#4f5069" stroke="#4f5069" stroke-width="1.51"/><path d="M-161,91L-117,208L-20,126Z" fill="#4f4e68" stroke="#4f4e68" stroke-width="1.51"/><path d="M1490,114L1446,-25L1362,90Z" fill="#4e8e8c" stroke="#4e8e8c" stroke-width="1.51"/><path d="M1569,12L1446,-25L1490,114Z" fill="#4f8c8c" stroke="#4f8c8c" stroke-width="1.51"/><path d="M-153,929L-47,1003L-54,915Z" fill="#4f8a8b" stroke="#4f8a8b" stroke-width="1.51"/><path d="M-171,431L-42,569L-36,430Z" fill="#465d6e" stroke="#465d6e" stroke-width="1.51"/><path d="M-161,310L-36,430L-25,312Z" fill="#4b586c" stroke="#4b586c" stroke-width="1.51"/><path d="M100,-108L-2,-33L66,0Z" fill="#4d4665" stroke="#4d4665" stroke-width="1.51"/><path d="M-117,208L-161,310L-25,312Z" fill="#4e566b" stroke="#4e566b" stroke-width="1.51"/><path d="M1592,423L1608,313L1443,359Z" fill="#42a093" stroke="#42a093" stroke-width="1.51"/><path d="M1603,803L1592,423L1584,542Z" fill="#29af98" stroke="#29af98" stroke-width="1.51"/><path d="M1446,-25L1360,-150L1357,5Z" fill="#4d8588" stroke="#4d8588" stroke-width="1.51"/><path d="M1260,-111L1360,-150L1096,-154Z" fill="#477a7e" stroke="#477a7e" stroke-width="1.51"/><path d="M-54,915L-47,1003L79,1012Z" fill="#4f8a8b" stroke="#4f8a8b" stroke-width="1.51"/><path d="M-169,770L-32,799L-130,684Z" fill="#46777b" stroke="#46777b" stroke-width="1.51"/><path d="M1375,1027L1492,1005L1447,905Z" fill="#29d4b4" stroke="#29d4b4" stroke-width="1.51"/><path d="M1608,313L1598,195L1444,244Z" fill="#4c9c92" stroke="#4c9c92" stroke-width="1.51"/><path d="M1446,-25L1487,-119L1360,-150Z" fill="#4f898b" stroke="#4f898b" stroke-width="1.51"/><path d="M1580,700L1603,803L1584,542Z" fill="#18b89b" stroke="#18b89b" stroke-width="1.51"/><path d="M1598,895L1445,812L1447,905Z" fill="#27d0b0" stroke="#27d0b0" stroke-width="1.51"/><path d="M-169,576L-169,770L-130,684Z" fill="#416e73" stroke="#416e73" stroke-width="1.51"/><path d="M-171,431L-169,770L-169,576Z" fill="#446771" stroke="#446771" stroke-width="1.51"/><path d="M1598,195L1581,82L1490,114Z" fill="#4f948f" stroke="#4f948f" stroke-width="1.51"/><path d="M1492,1005L1598,895L1447,905Z" fill="#29d4b4" stroke="#29d4b4" stroke-width="1.51"/><path d="M-141,-13L-161,91L-20,126Z" fill="#4e4966" stroke="#4e4966" stroke-width="1.51"/><path d="M-117,208L-161,91L-161,310Z" fill="#50536a" stroke="#50536a" stroke-width="1.51"/><path d="M-161,310L-161,91L-171,431Z" fill="#4e566b" stroke="#4e566b" stroke-width="1.51"/><path d="M-169,770L-153,929L-54,915Z" fill="#4d8688" stroke="#4d8688" stroke-width="1.51"/><path d="M1581,82L1569,12L1490,114Z" fill="#4f8f8d" stroke="#4f8f8d" stroke-width="1.51"/><path d="M-2,-33L-141,-13L-20,126Z" fill="#4d4565" stroke="#4d4565" stroke-width="1.51"/><path d="M100,-108L-40,-115L-2,-33Z" fill="#4c4464" stroke="#4c4464" stroke-width="1.51"/><path d="M414,-139L-40,-115L100,-108Z" fill="#4e4a67" stroke="#4e4a67" stroke-width="1.51"/><path d="M1569,12L1487,-119L1446,-25Z" fill="#4f8a8b" stroke="#4f8a8b" stroke-width="1.51"/><path d="M-40,-115L-141,-13L-2,-33Z" fill="#4c4364" stroke="#4c4364" stroke-width="1.51"/><path d="M-153,929L-146,1038L-47,1003Z" fill="#4f8a8b" stroke="#4f8a8b" stroke-width="1.51"/><path d="M-47,1003L-146,1038L79,1012Z" fill="#4f8a8b" stroke="#4f8a8b" stroke-width="1.51"/><path d="M79,1012L-146,1038L414,1034Z" fill="#4f8f8d" stroke="#4f8f8d" stroke-width="1.51"/><path d="M-169,770L-146,1038L-153,929Z" fill="#4f8a8b" stroke="#4f8a8b" stroke-width="1.51"/><path d="M1492,1005L1600,1029L1598,895Z" fill="#29d4b4" stroke="#29d4b4" stroke-width="1.51"/><path d="M1598,895L1600,1029L1603,803Z" fill="#29d4b4" stroke="#29d4b4" stroke-width="1.51"/><path d="M1375,1027L1600,1029L1492,1005Z" fill="#29d4b4" stroke="#29d4b4" stroke-width="1.51"/><path d="M885,1049L1600,1029L1375,1027Z" fill="#22c7a9" stroke="#22c7a9" stroke-width="1.51"/><path d="M-40,-115L-153,-105L-141,-13Z" fill="#4c4364" stroke="#4c4364" stroke-width="1.51"/><path d="M-141,-13L-153,-105L-161,91Z" fill="#4c4364" stroke="#4c4364" stroke-width="1.51"/><path d="M1569,12L1594,-137L1487,-119Z" fill="#4f8a8b" stroke="#4f8a8b" stroke-width="1.51"/><path d="M1487,-119L1594,-137L1360,-150Z" fill="#4f8a8b" stroke="#4f8a8b" stroke-width="1.51"/><path d="M1581,82L1594,-137L1569,12Z" fill="#4f8a8b" stroke="#4f8a8b" stroke-width="1.51"/><path d="M1598,195L1594,-137L1581,82Z" fill="#4f8d8d" stroke="#4f8d8d" stroke-width="1.51"/><path d="M1608,313L1594,-137L1598,195Z" fill="#4e938f" stroke="#4e938f" stroke-width="1.51"/></svg>