<svg xmlns="http://www.w3.org/2000/svg" width="112" height="112"><path d="M43,67L32,55L28,64Z" fill="#f36a35" stroke="#f36a35" stroke-width="1.51"/><path d="M32,55L20,41L28,64Z" fill="#ed612e" stroke="#ed612e" stroke-width="1.51"/><path d="M62,16L20,41L32,55Z" fill="#ea602d" stroke="#ea602d" stroke-width="1.51"/><path d="M43,67L69,42L32,55Z" fill="#f96933" stroke="#f96933" stroke-width="1.51"/><path d="M28,64L42,99L43,67Z" fill="#f57541" stroke="#f57541" stroke-width="1.51"/><path d="M43,67L42,99L73,63Z" fill="#fd7b44" stroke="#fd7b44" stroke-width="1.51"/><path d="M73,63L69,42L43,67Z" fill="#ff733c" stroke="#ff733c" stroke-width="1.51"/><path d="M28,64L17,96L42,99Z" fill="#f17945" stroke="#f17945" stroke-width="1.51"/><path d="M-18,81L17,96L28,64Z" fill="#e66e3c" stroke="#e66e3c" stroke-width="1.51"/><path d="M69,42L62,16L32,55Z" fill="#f36531" stroke="#f36531" stroke-width="1.51"/><path d="M20,41L-18,81L28,64Z" fill="#e6612f" stroke="#e6612f" stroke-width="1.51"/><path d="M69,42L86,7L62,16Z" fill="#ed6d39" stroke="#ed6d39" stroke-width="1.51"/><path d="M73,63L93,52L69,42Z" fill="#fd7c46" stroke="#fd7c46" stroke-width="1.51"/><path d="M99,61L93,52L73,63Z" fill="#ff8750" stroke="#ff8750" stroke-width="1.51"/><path d="M20,41L-22,30L-18,81Z" fill="#dd5626" stroke="#dd5626" stroke-width="1.51"/><path d="M62,16L36,3L20,41Z" fill="#e25a29" stroke="#e25a29" stroke-width="1.51"/><path d="M36,3L6,10L20,41Z" fill="#d75223" stroke="#d75223" stroke-width="1.51"/><path d="M6,10L-8,20L20,41Z" fill="#d24e21" stroke="#d24e21" stroke-width="1.51"/><path d="M42,99L79,108L73,63Z" fill="#ff8c56" stroke="#ff8c56" stroke-width="1.51"/><path d="M78,119L79,108L42,99Z" fill="#ff9a64" stroke="#ff9a64" stroke-width="1.51"/><path d="M-18,81L-18,94L17,96Z" fill="#e27241" stroke="#e27241" stroke-width="1.51"/><path d="M17,96L6,128L42,99Z" fill="#ee8554" stroke="#ee8554" stroke-width="1.51"/><path d="M104,83L99,61L73,63Z" fill="#ff905a" stroke="#ff905a" stroke-width="1.51"/><path d="M-8,20L-22,30L20,41Z" fill="#d34f21" stroke="#d34f21" stroke-width="1.51"/><path d="M-18,81L-38,91L-18,94Z" fill="#e27040" stroke="#e27040" stroke-width="1.51"/><path d="M-22,30L-26,33L-18,81Z" fill="#dc5526" stroke="#dc5526" stroke-width="1.51"/><path d="M-18,94L-7,116L17,96Z" fill="#e37a49" stroke="#e37a49" stroke-width="1.51"/><path d="M79,108L104,83L73,63Z" fill="#ff9760" stroke="#ff9760" stroke-width="1.51"/><path d="M53,136L78,119L42,99Z" fill="#ff9661" stroke="#ff9661" stroke-width="1.51"/><path d="M113,94L104,83L79,108Z" fill="#ffa772" stroke="#ffa772" stroke-width="1.51"/><path d="M-7,116L6,128L17,96Z" fill="#e68252" stroke="#e68252" stroke-width="1.51"/><path d="M6,10L-4,-17L-8,20Z" fill="#c5461b" stroke="#c5461b" stroke-width="1.51"/><path d="M-8,20L-38,20L-22,30Z" fill="#cf4c20" stroke="#cf4c20" stroke-width="1.51"/><path d="M-22,30L-38,20L-26,33Z" fill="#d14e21" stroke="#d14e21" stroke-width="1.51"/><path d="M36,3L13,-7L6,10Z" fill="#cd4b1f" stroke="#cd4b1f" stroke-width="1.51"/><path d="M62,16L53,-18L36,3Z" fill="#dd5626" stroke="#dd5626" stroke-width="1.51"/><path d="M36,3L53,-18L13,-7Z" fill="#d55022" stroke="#d55022" stroke-width="1.51"/><path d="M93,52L86,7L69,42Z" fill="#f37944" stroke="#f37944" stroke-width="1.51"/><path d="M110,39L86,7L93,52Z" fill="#f3824e" stroke="#f3824e" stroke-width="1.51"/><path d="M6,128L53,136L42,99Z" fill="#f48d5a" stroke="#f48d5a" stroke-width="1.51"/><path d="M99,61L110,39L93,52Z" fill="#fd8b56" stroke="#fd8b56" stroke-width="1.51"/><path d="M135,62L110,39L99,61Z" fill="#ff955f" stroke="#ff955f" stroke-width="1.51"/><path d="M-18,94L-45,117L-7,116Z" fill="#e37e4e" stroke="#e37e4e" stroke-width="1.51"/><path d="M-7,116L-1,154L6,128Z" fill="#e38051" stroke="#e38051" stroke-width="1.51"/><path d="M-49,65L-38,91L-18,81Z" fill="#e16a39" stroke="#e16a39" stroke-width="1.51"/><path d="M61,-21L53,-18L62,16Z" fill="#e05a2a" stroke="#e05a2a" stroke-width="1.51"/><path d="M104,83L135,62L99,61Z" fill="#ff9e69" stroke="#ff9e69" stroke-width="1.51"/><path d="M106,128L113,94L79,108Z" fill="#feb17e" stroke="#feb17e" stroke-width="1.51"/><path d="M-26,33L-49,65L-18,81Z" fill="#e05b2b" stroke="#e05b2b" stroke-width="1.51"/><path d="M-26,33L-38,20L-49,65Z" fill="#d75224" stroke="#d75224" stroke-width="1.51"/><path d="M-34,-13L-38,20L-8,20Z" fill="#c7481c" stroke="#c7481c" stroke-width="1.51"/><path d="M6,128L27,148L53,136Z" fill="#f28b58" stroke="#f28b58" stroke-width="1.51"/><path d="M-1,154L27,148L6,128Z" fill="#e88453" stroke="#e88453" stroke-width="1.51"/><path d="M86,7L61,-21L62,16Z" fill="#e16332" stroke="#e16332" stroke-width="1.51"/><path d="M13,-36L-4,-17L13,-7Z" fill="#c7461c" stroke="#c7461c" stroke-width="1.51"/><path d="M13,-7L-4,-17L6,10Z" fill="#c5461b" stroke="#c5461b" stroke-width="1.51"/><path d="M13,-36L13,-7L29,-43Z" fill="#cc4a1e" stroke="#cc4a1e" stroke-width="1.51"/><path d="M78,119L106,128L79,108Z" fill="#feaa77" stroke="#feaa77" stroke-width="1.51"/><path d="M53,136L68,148L78,119Z" fill="#ff9c67" stroke="#ff9c67" stroke-width="1.51"/><path d="M51,154L68,148L53,136Z" fill="#ff9660" stroke="#ff9660" stroke-width="1.51"/><path d="M27,148L51,154L53,136Z" fill="#f9915c" stroke="#f9915c" stroke-width="1.51"/><path d="M100,144L106,128L78,119Z" fill="#feaf7c" stroke="#feaf7c" stroke-width="1.51"/><path d="M-38,91L-45,117L-18,94Z" fill="#e37948" stroke="#e37948" stroke-width="1.51"/><path d="M-49,65L-45,117L-38,91Z" fill="#e27242" stroke="#e27242" stroke-width="1.51"/><path d="M106,128L120,114L113,94Z" fill="#fdba89" stroke="#fdba89" stroke-width="1.51"/><path d="M113,94L135,62L104,83Z" fill="#ffa571" stroke="#ffa571" stroke-width="1.51"/><path d="M110,39L123,10L86,7Z" fill="#ec8452" stroke="#ec8452" stroke-width="1.51"/><path d="M141,93L135,62L113,94Z" fill="#ffa773" stroke="#ffa773" stroke-width="1.51"/><path d="M27,148L-1,154L51,154Z" fill="#f08a58" stroke="#f08a58" stroke-width="1.51"/><path d="M-39,145L-1,154L-7,116Z" fill="#e38051" stroke="#e38051" stroke-width="1.51"/><path d="M-4,-17L-34,-13L-8,20Z" fill="#c3441a" stroke="#c3441a" stroke-width="1.51"/><path d="M29,-43L13,-7L53,-18Z" fill="#d34f22" stroke="#d34f22" stroke-width="1.51"/><path d="M145,33L123,10L110,39Z" fill="#f18b58" stroke="#f18b58" stroke-width="1.51"/><path d="M86,7L94,-24L61,-21Z" fill="#e16b3a" stroke="#e16b3a" stroke-width="1.51"/><path d="M-5,-43L-34,-13L-4,-17Z" fill="#c3441a" stroke="#c3441a" stroke-width="1.51"/><path d="M-38,20L-43,-30L-49,65Z" fill="#cc4a1e" stroke="#cc4a1e" stroke-width="1.51"/><path d="M68,148L100,144L78,119Z" fill="#ffa673" stroke="#ffa673" stroke-width="1.51"/><path d="M106,128L142,135L120,114Z" fill="#fdba89" stroke="#fdba89" stroke-width="1.51"/><path d="M129,157L100,144L68,148Z" fill="#feb27f" stroke="#feb27f" stroke-width="1.51"/><path d="M61,-21L57,-41L53,-18Z" fill="#e05929" stroke="#e05929" stroke-width="1.51"/><path d="M122,-1L94,-24L86,7Z" fill="#e37948" stroke="#e37948" stroke-width="1.51"/><path d="M88,-33L57,-41L61,-21Z" fill="#e16231" stroke="#e16231" stroke-width="1.51"/><path d="M57,-41L29,-43L53,-18Z" fill="#db5525" stroke="#db5525" stroke-width="1.51"/><path d="M123,10L122,-1L86,7Z" fill="#e58151" stroke="#e58151" stroke-width="1.51"/><path d="M161,11L122,-1L123,10Z" fill="#e68352" stroke="#e68352" stroke-width="1.51"/><path d="M110,-41L88,-33L94,-24Z" fill="#e27746" stroke="#e27746" stroke-width="1.51"/><path d="M94,-24L88,-33L61,-21Z" fill="#e16b3a" stroke="#e16b3a" stroke-width="1.51"/><path d="M120,114L141,93L113,94Z" fill="#feb380" stroke="#feb380" stroke-width="1.51"/><path d="M142,135L141,93L120,114Z" fill="#fdba89" stroke="#fdba89" stroke-width="1.51"/><path d="M-45,117L-39,145L-7,116Z" fill="#e38051" stroke="#e38051" stroke-width="1.51"/><path d="M152,63L145,33L135,62Z" fill="#fe945e" stroke="#fe945e" stroke-width="1.51"/><path d="M135,62L145,33L110,39Z" fill="#fa915c" stroke="#fa915c" stroke-width="1.51"/><path d="M29,-43L-5,-43L13,-36Z" fill="#c9481d" stroke="#c9481d" stroke-width="1.51"/><path d="M13,-36L-5,-43L-4,-17Z" fill="#c3451b" stroke="#c3451b" stroke-width="1.51"/><path d="M141,93L152,63L135,62Z" fill="#ffa16c" stroke="#ffa16c" stroke-width="1.51"/><path d="M-5,-43L-43,-30L-34,-13Z" fill="#c3441a" stroke="#c3441a" stroke-width="1.51"/><path d="M-34,-13L-43,-30L-38,20Z" fill="#c3441a" stroke="#c3441a" stroke-width="1.51"/><path d="M88,-33L110,-41L57,-41Z" fill="#e26e3d" stroke="#e26e3d" stroke-width="1.51"/><path d="M57,-41L110,-41L29,-43Z" fill="#e1602f" stroke="#e1602f" stroke-width="1.51"/><path d="M122,-1L110,-41L94,-24Z" fill="#e37e4e" stroke="#e37e4e" stroke-width="1.51"/><path d="M146,-36L110,-41L122,-1Z" fill="#e38051" stroke="#e38051" stroke-width="1.51"/><path d="M141,93L160,152L152,63Z" fill="#feb482" stroke="#feb482" stroke-width="1.51"/><path d="M129,157L142,135L106,128Z" fill="#fdba89" stroke="#fdba89" stroke-width="1.51"/><path d="M100,144L129,157L106,128Z" fill="#fdba89" stroke="#fdba89" stroke-width="1.51"/><path d="M51,154L129,157L68,148Z" fill="#ffa773" stroke="#ffa773" stroke-width="1.51"/><path d="M-1,154L129,157L51,154Z" fill="#ff9862" stroke="#ff9862" stroke-width="1.51"/><path d="M145,33L161,11L123,10Z" fill="#ec8755" stroke="#ec8755" stroke-width="1.51"/><path d="M152,63L161,11L145,33Z" fill="#f58e5a" stroke="#f58e5a" stroke-width="1.51"/><path d="M160,152L161,11L152,63Z" fill="#ffa26e" stroke="#ffa26e" stroke-width="1.51"/><path d="M161,11L158,-15L122,-1Z" fill="#e38051" stroke="#e38051" stroke-width="1.51"/><path d="M158,-15L146,-36L122,-1Z" fill="#e38051" stroke="#e38051" stroke-width="1.51"/><path d="M142,135L160,152L141,93Z" fill="#fdba89" stroke="#fdba89" stroke-width="1.51"/><path d="M129,157L160,152L142,135Z" fill="#fdba89" stroke="#fdba89" stroke-width="1.51"/></svg>